<svg width="49" height="48" viewBox="0 0 49 48" fill="none" xmlns="http://www.w3.org/2000/svg">
<g id="Hinzuf&#195;&#188;gen zur Einkaufsliste">
<path id="icon/action/shopping_cart_24px" fill-rule="evenodd" clip-rule="evenodd" d="M35.2125 20.9419C34.4988 22.2434 33.1133 23.1041 31.5389 23.1041H15.8997L13.5905 27.3026H38.7812V31.501H13.5905C10.3997 31.501 8.38448 28.0793 9.91691 25.2663L12.7509 20.1442L5.19367 4.21114H0.995224V0.0126953H7.85967L9.83294 4.21114H40.9014C42.4968 4.21114 43.5044 5.9325 42.7277 7.31798L35.2125 20.9419ZM37.3327 8.40977H11.8272L16.8024 18.9059H31.5389L37.3327 8.40977ZM13.5905 33.6005C11.2813 33.6005 9.41303 35.4898 9.41303 37.799C9.41303 40.1081 11.2813 41.9974 13.5905 41.9974C15.8996 41.9974 17.7889 40.1081 17.7889 37.799C17.7889 35.4898 15.8996 33.6005 13.5905 33.6005ZM30.4052 37.799C30.4052 35.4898 32.2736 33.6005 34.5827 33.6005C36.8918 33.6005 38.7811 35.4898 38.7811 37.799C38.7811 40.1081 36.8918 41.9974 34.5827 41.9974C32.2736 41.9974 30.4052 40.1081 30.4052 37.799Z" fill="#262626"/>
</g>
</svg>
