<svg width="30" height="30" viewBox="0 0 30 30" fill="none" xmlns="http://www.w3.org/2000/svg">
<g clip-path="url(#clip0)">
<path d="M8.10002 14.175C8.10002 13.8019 7.7981 13.5 7.42499 13.5C7.05189 13.5 6.74997 13.8019 6.74997 14.175C6.74997 15.9475 8.70511 18.3813 8.92792 18.6535C9.06176 18.8157 9.25553 18.9 9.45063 18.9C9.60092 18.9 9.75254 18.8499 9.87841 18.7471C10.1665 18.5104 10.208 18.0853 9.972 17.7965C9.24832 16.9146 8.10002 15.1519 8.10002 14.175Z" fill="black"/>
<path d="M22.275 13.5C21.9019 13.5 21.6 13.8019 21.6 14.175C21.6 15.1486 20.4517 16.9133 19.7279 17.7972C19.492 18.0853 19.5341 18.5105 19.8222 18.7471C19.9475 18.8499 20.0991 18.9 20.25 18.9C20.4451 18.9 20.6382 18.8157 20.7721 18.6535C20.9949 18.3813 22.95 15.9476 22.95 14.175C22.95 13.8019 22.6481 13.5 22.275 13.5Z" fill="black"/>
<path d="M14.85 13.5C14.4769 13.5 14.175 13.8019 14.175 14.175V18.225C14.175 18.5981 14.4769 18.9 14.85 18.9C15.2231 18.9 15.5251 18.5981 15.5251 18.225V14.175C15.525 13.8019 15.2231 13.5 14.85 13.5Z" fill="black"/>
<path d="M22.275 2.70002C21.866 2.70002 21.4385 2.75413 20.9946 2.83658C19.5079 1.10356 17.3072 0 14.85 0C12.3929 0 10.1921 1.10356 8.70548 2.83652C8.2615 2.75413 7.83403 2.69996 7.42505 2.69996C3.33081 2.70002 0 6.03083 0 10.125C0 12.9305 1.58203 15.4808 4.06582 16.7418L4.05266 26.9426C4.05203 27.6789 4.33806 28.3711 4.85817 28.8918C5.37891 29.4133 6.07038 29.7 6.80673 29.7H22.896C24.4147 29.7 25.6501 28.4647 25.6501 26.9459V16.732C28.1246 15.4677 29.7001 12.9212 29.7001 10.125C29.7 6.03083 26.3692 2.70002 22.275 2.70002ZM24.3 26.946C24.3 27.7199 23.6699 28.3501 22.8959 28.3501H6.80666C6.43159 28.3501 6.07893 28.2037 5.81327 27.9381C5.54825 27.6725 5.40194 27.3198 5.40258 26.9441L5.40612 24.3H24.3V26.946ZM24.7179 15.6812C24.6823 15.6957 24.6487 15.7129 24.6171 15.7333C24.532 15.786 24.4621 15.856 24.4101 15.9363C24.3573 16.0161 24.3217 16.1084 24.3072 16.2072C24.3013 16.2448 24.2993 16.2824 24.3 16.3206V22.95H5.40783L5.4165 16.3298C5.41713 16.2929 5.41517 16.2553 5.40992 16.2191C5.39543 16.1169 5.35784 16.0219 5.3031 15.9395C5.25165 15.8624 5.18445 15.7952 5.10269 15.7438C5.06908 15.7227 5.03346 15.7042 4.99656 15.689C2.78109 14.7202 1.34998 12.5382 1.34998 10.125C1.34998 6.77502 4.07506 4.05 7.42498 4.05C7.55591 4.05 7.69412 4.06582 7.82973 4.07652C7.1468 5.26342 6.74996 6.63498 6.74996 8.10001C6.74996 8.47311 7.05188 8.77503 7.42498 8.77503C7.79809 8.77503 8.10001 8.47311 8.10001 8.10001C8.10001 4.37824 11.1283 1.34998 14.85 1.34998C18.5718 1.34998 21.6 4.37824 21.6 8.10001C21.6 8.47311 21.9019 8.77503 22.275 8.77503C22.6481 8.77503 22.95 8.47311 22.95 8.10001C22.95 6.63498 22.5532 5.26348 21.8703 4.07652C22.0059 4.06582 22.1441 4.05 22.275 4.05C25.625 4.05 28.35 6.77509 28.35 10.125C28.35 12.5297 26.9249 14.7089 24.7179 15.6812Z" fill="black"/>
</g>
<defs>
<clipPath id="clip0">
<rect width="29.7" height="29.7" rx="6" fill="white"/>
</clipPath>
</defs>
</svg>
