<svg width="122" height="86" viewBox="0 0 122 86" fill="none" xmlns="http://www.w3.org/2000/svg">
<path fill-rule="evenodd" clip-rule="evenodd" d="M43.0674 57.9C43.0674 58.6509 43.0011 59.3575 42.9128 60.0642L47.5724 63.708C47.992 64.0392 48.1024 64.6355 47.8374 65.1213L43.4207 72.7621C43.222 73.1155 42.8466 73.3142 42.4711 73.3142C42.3386 73.3142 42.2061 73.2921 42.0736 73.248L36.5749 71.0396C35.4266 71.9009 34.1899 72.6517 32.8428 73.2038L32.0036 79.0559C31.9374 79.5859 31.4736 79.9834 30.9216 79.9834H22.0882C21.5361 79.9834 21.0724 79.5859 21.0061 79.0559L20.167 73.2038C18.8199 72.6517 17.5832 71.923 16.4349 71.0396L10.9361 73.248C10.8257 73.2921 10.6932 73.3142 10.5607 73.3142C10.1632 73.3142 9.78781 73.1155 9.58906 72.7621L5.17239 65.1213C4.90739 64.6355 5.01781 64.0392 5.43739 63.708L10.097 60.0642C10.0086 59.3575 9.94239 58.6288 9.94239 57.9C9.94239 57.1713 10.0086 56.4425 10.097 55.7359L5.43739 52.0921C5.01781 51.7609 4.88531 51.1646 5.17239 50.6788L9.58906 43.038C9.78781 42.6846 10.1632 42.4859 10.5386 42.4859C10.6711 42.4859 10.8036 42.508 10.9361 42.5521L16.4349 44.7605C17.5832 43.8992 18.8199 43.1484 20.167 42.5963L21.0061 36.7442C21.0724 36.2142 21.5361 35.8167 22.0882 35.8167H30.9216C31.4736 35.8167 31.9374 36.2142 32.0036 36.7442L32.8428 42.5963C34.1899 43.1484 35.4266 43.8771 36.5749 44.7605L42.0736 42.5521C42.1841 42.508 42.3166 42.4859 42.4491 42.4859C42.8466 42.4859 43.222 42.6846 43.4207 43.038L47.8374 50.6788C48.1024 51.1646 47.992 51.7609 47.5724 52.0921L42.9128 55.7359C43.0011 56.4425 43.0674 57.1492 43.0674 57.9ZM38.6508 57.9C38.6508 57.4363 38.6287 56.9725 38.5403 56.288L38.2312 53.7925L40.1966 52.2467L42.5595 50.3696L41.0137 47.6975L38.2091 48.8238L35.8683 49.7734L33.8587 48.2275C32.9753 47.565 32.092 47.0571 31.1424 46.6596L28.8016 45.71L28.4483 43.2146L28.0287 40.2334H24.9591L24.5174 43.2146L24.1641 45.71L21.8233 46.6596C20.9178 47.035 20.0124 47.565 19.0628 48.2717L17.0753 49.7734L14.7787 48.8459L11.9741 47.7196L10.4283 50.3917L12.8133 52.2467L14.7787 53.7925L14.4695 56.288C14.4033 56.9505 14.3591 57.4584 14.3591 57.9C14.3591 58.3417 14.4033 58.8496 14.4695 59.5342L14.7787 62.0296L12.8133 63.5755L10.4283 65.4305L11.9741 68.1025L14.7787 66.9763L17.1195 66.0267L19.1291 67.5725C20.0124 68.235 20.8958 68.743 21.8453 69.1405L24.1862 70.09L24.5395 72.5855L24.9591 75.5667H28.0508L28.4924 72.5855L28.8458 70.09L31.1866 69.1405C32.092 68.765 32.9974 68.235 33.947 67.5284L35.9345 66.0267L38.2312 66.9542L41.0358 68.0805L42.5816 65.4084L40.1966 63.5534L38.2312 62.0075L38.5403 59.5121C38.6066 58.8496 38.6508 58.3638 38.6508 57.9ZM26.5048 49.0667C21.6244 49.0667 17.6715 53.0196 17.6715 57.9C17.6715 62.7805 21.6244 66.7334 26.5048 66.7334C31.3853 66.7334 35.3382 62.7805 35.3382 57.9C35.3382 53.0196 31.3853 49.0667 26.5048 49.0667ZM22.0882 57.9C22.0882 60.3292 24.0757 62.3167 26.5048 62.3167C28.934 62.3167 30.9215 60.3292 30.9215 57.9C30.9215 55.4709 28.934 53.4834 26.5048 53.4834C24.0757 53.4834 22.0882 55.4709 22.0882 57.9Z" fill="white"/>
<path fill-rule="evenodd" clip-rule="evenodd" d="M114.504 65.4C114.504 65.9667 114.454 66.5 114.387 67.0333L117.904 69.7833C118.22 70.0333 118.304 70.4833 118.104 70.85L114.77 76.6167C114.62 76.8833 114.337 77.0333 114.054 77.0333C113.954 77.0333 113.854 77.0167 113.754 76.9833L109.604 75.3167C108.737 75.9667 107.804 76.5333 106.787 76.95L106.154 81.3667C106.104 81.7667 105.754 82.0667 105.337 82.0667H98.6704C98.2537 82.0667 97.9037 81.7667 97.8537 81.3667L97.2204 76.95C96.2037 76.5333 95.2704 75.9833 94.4037 75.3167L90.2537 76.9833C90.1704 77.0167 90.0704 77.0333 89.9704 77.0333C89.6704 77.0333 89.387 76.8833 89.237 76.6167L85.9037 70.85C85.7037 70.4833 85.787 70.0333 86.1037 69.7833L89.6204 67.0333C89.5537 66.5 89.5037 65.95 89.5037 65.4C89.5037 64.85 89.5537 64.3 89.6204 63.7667L86.1037 61.0167C85.787 60.7667 85.687 60.3167 85.9037 59.95L89.237 54.1833C89.387 53.9167 89.6704 53.7667 89.9537 53.7667C90.0537 53.7667 90.1537 53.7833 90.2537 53.8167L94.4037 55.4833C95.2704 54.8333 96.2037 54.2667 97.2204 53.85L97.8537 49.4333C97.9037 49.0333 98.2537 48.7333 98.6704 48.7333H105.337C105.754 48.7333 106.104 49.0333 106.154 49.4333L106.787 53.85C107.804 54.2667 108.737 54.8167 109.604 55.4833L113.754 53.8167C113.837 53.7833 113.937 53.7667 114.037 53.7667C114.337 53.7667 114.62 53.9167 114.77 54.1833L118.104 59.95C118.304 60.3167 118.22 60.7667 117.904 61.0167L114.387 63.7667C114.454 64.3 114.504 64.8333 114.504 65.4ZM111.17 65.4C111.17 65.05 111.154 64.7 111.087 64.1833L110.854 62.3L112.337 61.1333L114.12 59.7167L112.954 57.7L110.837 58.55L109.07 59.2667L107.554 58.1C106.887 57.6 106.22 57.2167 105.504 56.9167L103.737 56.2L103.47 54.3167L103.154 52.0667H100.837L100.504 54.3167L100.237 56.2L98.4704 56.9167C97.787 57.2 97.1037 57.6 96.387 58.1333L94.887 59.2667L93.1537 58.5667L91.037 57.7167L89.8704 59.7333L91.6704 61.1333L93.1537 62.3L92.9204 64.1833C92.8704 64.6833 92.837 65.0667 92.837 65.4C92.837 65.7333 92.8704 66.1167 92.9204 66.6333L93.1537 68.5167L91.6704 69.6833L89.8704 71.0833L91.037 73.1L93.1537 72.25L94.9204 71.5333L96.437 72.7C97.1037 73.2 97.7704 73.5833 98.487 73.8833L100.254 74.6L100.52 76.4833L100.837 78.7333H103.17L103.504 76.4833L103.77 74.6L105.537 73.8833C106.22 73.6 106.904 73.2 107.62 72.6667L109.12 71.5333L110.854 72.2333L112.97 73.0833L114.137 71.0667L112.337 69.6667L110.854 68.5L111.087 66.6167C111.137 66.1167 111.17 65.75 111.17 65.4ZM102.004 58.7333C98.3203 58.7333 95.337 61.7167 95.337 65.4C95.337 69.0833 98.3203 72.0667 102.004 72.0667C105.687 72.0667 108.67 69.0833 108.67 65.4C108.67 61.7167 105.687 58.7333 102.004 58.7333ZM98.6703 65.4C98.6703 67.2333 100.17 68.7333 102.004 68.7333C103.837 68.7333 105.337 67.2333 105.337 65.4C105.337 63.5667 103.837 62.0667 102.004 62.0667C100.17 62.0667 98.6703 63.5667 98.6703 65.4Z" fill="white"/>
<path fill-rule="evenodd" clip-rule="evenodd" d="M88.5665 34.4458C88.8383 35.3199 89.017 36.1666 89.1699 37.0212L95.9134 39.5765C96.5218 39.8102 96.8662 40.4644 96.7336 41.1259L94.3577 51.6199C94.2542 52.1032 93.8891 52.4704 93.452 52.6063C93.2978 52.6543 93.1355 52.6766 92.9653 52.6731L85.7645 52.0927C84.7394 53.511 83.5715 54.8327 82.2031 55.9631L83.3445 63.0796C83.4592 63.7206 83.0632 64.3513 82.4205 64.5511L72.137 67.7486C71.4943 67.9485 70.8105 67.6536 70.5416 67.0605L67.4463 60.5515C65.6782 60.3964 63.9747 59.9957 62.3181 59.383L56.716 63.9443C56.6035 64.0357 56.4572 64.1094 56.303 64.1573C55.8402 64.3012 55.3312 64.2057 54.972 63.8663L47.0644 56.5699C46.58 56.1002 46.4927 55.3661 46.8613 54.8286L50.9668 48.9C50.6082 48.1093 50.2673 47.2849 50.0035 46.4365C49.7397 45.5881 49.553 44.7157 49.4 43.8611L42.6565 41.3058C42.0482 41.0721 41.6781 40.4259 41.8364 39.7564L44.2123 29.2625C44.3158 28.7792 44.6809 28.4119 45.118 28.276C45.2722 28.228 45.4345 28.2058 45.6047 28.2092L52.8055 28.7897C53.8306 27.3713 54.9985 26.0496 56.3669 24.9193L55.2255 17.8027C55.1108 17.1617 55.5068 16.5311 56.1495 16.3312L66.433 13.1337C67.0757 12.9339 67.7594 13.2288 68.0284 13.8218L71.1237 20.3308C72.8918 20.4859 74.5953 20.8867 76.2519 21.4993L81.8539 16.938C81.9665 16.8466 82.1128 16.773 82.267 16.725C82.7298 16.5811 83.2388 16.6766 83.598 17.016L91.5056 24.3124C91.99 24.7821 92.0773 25.5162 91.7087 26.0537L87.6032 31.9823C87.9618 32.773 88.2947 33.5717 88.5665 34.4458ZM83.4248 36.0446C83.2569 35.5047 83.0634 34.9728 82.7127 34.2078L81.4495 31.4146L83.178 28.9036L85.2494 25.863L82.4825 23.3118L79.6252 25.6382L77.2438 27.591L74.3448 26.5188C73.0766 26.0673 71.8644 25.7958 70.615 25.6767L67.5462 25.4186L66.2315 22.6414L64.6639 19.3226L61.0904 20.4338L61.6554 24.0643L62.1473 27.0973L59.766 29.0501C58.8478 29.8149 57.9856 30.7597 57.1359 31.9261L55.3657 34.3937L52.3563 34.1453L48.6836 33.8494L47.8512 37.5197L51.2992 38.8159L54.1469 39.904L54.6902 42.921C54.8529 43.7163 54.9854 44.3236 55.1453 44.8377C55.3051 45.3519 55.5404 45.9272 55.8653 46.7002L57.1286 49.4934L55.4 52.0044L53.295 55.0273L56.0618 57.5785L58.9192 55.2521L61.3005 53.2993L64.1996 54.3715C65.4678 54.823 66.68 55.0945 67.9293 55.2136L70.9982 55.4717L72.3128 58.2489L73.8804 61.5677L77.4797 60.4485L76.9147 56.818L76.4227 53.785L78.8041 51.8322C79.7223 51.0674 80.5845 50.1226 81.4341 48.9562L83.2044 46.4886L86.2138 46.737L89.8865 47.033L90.7188 43.3626L87.2708 42.0664L84.4232 40.9783L83.8798 37.9613C83.7171 37.166 83.5927 36.5845 83.4248 36.0446ZM66.0874 30.1577C60.4058 31.9243 57.2348 37.9571 59.0015 43.6387C60.7681 49.3203 66.8008 52.4913 72.4825 50.7247C78.1641 48.958 81.335 42.9253 79.5684 37.2437C77.8018 31.5621 71.769 28.3911 66.0874 30.1577ZM64.1432 42.0399C65.0225 44.8679 68.0557 46.4622 70.8837 45.5829C73.7116 44.7036 75.306 41.6704 74.4267 38.8424C73.5474 36.0145 70.5141 34.4201 67.6862 35.2994C64.8582 36.1788 63.2639 39.212 64.1432 42.0399Z" fill="white"/>
</svg>
