<svg width="119" height="70" viewBox="0 0 119 70" fill="none" xmlns="http://www.w3.org/2000/svg">
<path d="M27.4307 1H1V27.4307" stroke="#CCCCCC" stroke-width="2"/>
<path d="M0.999999 42.232L1 68.6627L27.4307 68.6627" stroke="#CCCCCC" stroke-width="2"/>
<path d="M90.8645 68.6627L117.295 68.6627L117.295 42.232" stroke="#CCCCCC" stroke-width="2"/>
<path d="M117.295 27.4307L117.295 1L90.8645 0.999999" stroke="#CCCCCC" stroke-width="2"/>
<rect x="5.92255" y="7.21545" width="4.92925" height="55.8648" fill="white"/>
<rect x="14.9594" y="7.21545" width="2.46462" height="55.8648" fill="white"/>
<rect x="23.9964" y="7.21545" width="1.64308" height="55.8648" fill="white"/>
<rect x="20.7103" y="7.21545" width="0.821541" height="55.8648" fill="white"/>
<rect x="26.4611" y="7.21545" width="0.821541" height="55.8648" fill="white"/>
<rect x="80.6828" y="7.21545" width="0.821541" height="55.8648" fill="white"/>
<rect x="30.5687" y="7.21545" width="5.75079" height="55.8648" fill="white"/>
<rect x="38.7841" y="7.21545" width="3.28616" height="55.8648" fill="white"/>
<rect x="51.1073" y="7.21545" width="4.92925" height="55.8648" fill="white"/>
<rect x="44.5349" y="7.21545" width="4.92925" height="55.8648" fill="white"/>
<rect x="59.3227" y="7.21545" width="3.28616" height="55.8648" fill="white"/>
<rect x="65.895" y="7.21545" width="4.92925" height="55.8648" fill="white"/>
<rect x="76.575" y="7.21545" width="1.64308" height="55.8648" fill="white"/>
<rect x="85.612" y="7.21545" width="1.64308" height="55.8648" fill="white"/>
<rect x="93.8274" y="7.21545" width="2.46462" height="55.8648" fill="white"/>
<rect x="89.7197" y="7.21545" width="2.46462" height="55.8648" fill="white"/>
<rect x="102.043" y="7.21545" width="2.46462" height="55.8648" fill="white"/>
<rect x="110.258" y="7.21545" width="2.46462" height="55.8648" fill="white"/>
</svg>
