<svg width="64" height="57" viewBox="0 0 64 57" fill="none" xmlns="http://www.w3.org/2000/svg">
<path fill-rule="evenodd" clip-rule="evenodd" d="M30.7114 32.2045C33.5617 36.5053 36.3046 39.6687 36.5454 39.9425L37.8147 41.3965L39.084 39.9425C39.3248 39.6687 42.0677 36.5053 44.918 32.2045H55.2861L57.0069 37.419L48.6003 48.4526L6.26191 37.1624L7.89801 32.2045H30.7114ZM47.7736 56.1379L58.5267 42.0245L63.1841 56.1379H47.7736ZM45.9788 51.8934L42.7449 56.1379H18.0005L24.1938 46.084L45.9788 51.8934ZM13.3301 56.0931L13.4028 56.1379H0L5.00628 40.9674L20.1586 45.008L13.3301 56.0931Z" fill="black"/>
<path fill-rule="evenodd" clip-rule="evenodd" d="M24.0929 14.672C24.0929 7.10785 30.2506 0.950195 37.8147 0.950195C45.3788 0.950195 51.5365 7.10785 51.5365 14.672C51.5365 24.2258 39.5985 37.5531 39.084 38.1191L37.8147 39.5256L36.5454 38.1191C36.0309 37.5531 24.0929 24.2258 24.0929 14.672ZM27.5233 14.672C27.5233 20.7439 34.0755 29.8689 37.8147 34.3456C40.8163 30.7265 48.106 21.2413 48.106 14.672C48.106 8.9946 43.4921 4.38064 37.8147 4.38064C32.1373 4.38064 27.5233 8.9946 27.5233 14.672Z" fill="black"/>
<path fill-rule="evenodd" clip-rule="evenodd" d="M31.1863 8.02777H45.1407V9.77207H31.1863V8.02777ZM44.2337 15.005L43.7104 12.3885H32.6166L32.0934 15.005H44.2337ZM45.1407 10.6442H31.1864L30.3142 15.005V16.7493H31.1864V21.9822H39.9078V16.7493H43.3964V21.9822H45.1407V16.7493H46.0129V15.005L45.1407 10.6442ZM32.9307 16.7493V20.2379H38.1635V16.7493H32.9307Z" fill="black"/>
</svg>
