<svg width="42" height="41" viewBox="0 0 42 41" fill="none" xmlns="http://www.w3.org/2000/svg">
<path fill-rule="evenodd" clip-rule="evenodd" d="M7.0929 14.672C7.0929 7.10785 13.2506 0.950195 20.8147 0.950195C28.3788 0.950195 34.5365 7.10785 34.5365 14.672C34.5365 24.2258 22.5985 37.5531 22.084 38.1191L20.8147 39.5256L19.5454 38.1191C19.0309 37.5531 7.0929 24.2258 7.0929 14.672ZM10.5233 14.672C10.5233 20.7439 17.0755 29.8689 20.8147 34.3456C23.8163 30.7265 31.106 21.2413 31.106 14.672C31.106 8.9946 26.4921 4.38064 20.8147 4.38064C15.1373 4.38064 10.5233 8.9946 10.5233 14.672Z" fill="black"/>
<path fill-rule="evenodd" clip-rule="evenodd" d="M14.1863 8.02777H28.1407V9.77207H14.1863V8.02777ZM27.2337 15.005L26.7104 12.3885H15.6166L15.0934 15.005H27.2337ZM28.1407 10.6442H14.1864L13.3142 15.005V16.7493H14.1864V21.9822H22.9078V16.7493H26.3964V21.9822H28.1407V16.7493H29.0129V15.005L28.1407 10.6442ZM15.9307 16.7493V20.2379H21.1635V16.7493H15.9307Z" fill="black"/>
</svg>
