<svg width="87" height="87" viewBox="0 0 87 87" fill="none" xmlns="http://www.w3.org/2000/svg">
<path fill-rule="evenodd" clip-rule="evenodd" d="M58.043 54.522H61.9588L86.6928 79.3047L79.3073 86.69L54.5238 61.9568V58.0412L53.1854 56.6533C47.5348 61.5107 40.1989 64.4351 32.2186 64.4351C14.424 64.4351 0 50.0115 0 32.2175C0 14.4235 14.424 0 32.2186 0C50.0132 0 64.4372 14.4235 64.4372 32.2175C64.4372 40.1976 61.5127 47.5333 56.6551 53.1837L58.043 54.522ZM9.91351 32.2175C9.91351 44.5593 19.8765 54.522 32.2187 54.522C44.5609 54.522 54.5239 44.5593 54.5239 32.2175C54.5239 19.8757 44.5609 9.91309 32.2187 9.91309C19.8765 9.91309 9.91351 19.8757 9.91351 32.2175Z" fill="rgba(0, 0, 0, 0.54)"/>
</svg>
