<svg width="102" height="102" viewBox="0 0 102 102" fill="none" xmlns="http://www.w3.org/2000/svg">
<g clip-path="url(#clip0)">
<path d="M22.5575 21.6019C21.9017 21.1077 20.9698 21.2383 20.4754 21.8939L15.3617 28.6751L12.8896 25.6537C12.3696 25.0182 11.4328 24.9248 10.7976 25.4446C10.1621 25.9643 10.0683 26.901 10.5883 27.5365L14.2585 32.0225C14.541 32.3678 14.9636 32.5676 15.4091 32.5676C15.4188 32.5676 15.4285 32.5674 15.4384 32.5674C15.8943 32.5583 16.3211 32.3404 16.5959 31.9761L22.8494 23.6839C23.3436 23.0284 23.213 22.0963 22.5575 21.6019Z" fill="white"/>
<path d="M22.5575 39.5739C21.9017 39.0797 20.9698 39.2104 20.4754 39.8659L15.3617 46.6472L12.8896 43.6258C12.3696 42.99 11.4328 42.8967 10.7976 43.4164C10.1621 43.9364 10.0683 44.873 10.5883 45.5084L14.2585 49.9943C14.541 50.3398 14.9636 50.5396 15.4091 50.5396C15.4188 50.5396 15.4285 50.5395 15.4384 50.5393C15.8943 50.5301 16.3211 50.3123 16.5959 49.9479L22.8494 41.656C23.3436 41.0004 23.213 40.0683 22.5575 39.5739Z" fill="white"/>
<path d="M22.5575 57.5455C21.9017 57.0513 20.9698 57.1819 20.4754 57.8375L15.3617 64.6189L12.8896 61.5975C12.3696 60.9618 11.4328 60.8684 10.7976 61.3882C10.1621 61.9081 10.0683 62.8448 10.5883 63.4801L14.2585 67.9661C14.541 68.3116 14.9636 68.5114 15.4091 68.5114C15.4188 68.5114 15.4285 68.5114 15.4384 68.5112C15.8943 68.5021 16.3211 68.2842 16.5959 67.9199L22.8494 59.6275C23.3436 58.972 23.213 58.0399 22.5575 57.5455Z" fill="white"/>
<path d="M67.0406 28.7454H34.8638C34.0427 28.7454 33.3773 29.411 33.3773 30.2319C33.3773 31.0528 34.0427 31.7184 34.8638 31.7184H67.0406C67.8616 31.7184 68.5271 31.0528 68.5271 30.2319C68.5271 29.4108 67.8616 28.7454 67.0406 28.7454Z" fill="white"/>
<path d="M67.0406 40.7042H34.8638C34.0427 40.7042 33.3773 41.3699 33.3773 42.1908C33.3773 43.0116 34.0427 43.6773 34.8638 43.6773H67.0406C67.8616 43.6773 68.5271 43.0116 68.5271 42.1908C68.5271 41.3699 67.8616 40.7042 67.0406 40.7042Z" fill="white"/>
<path d="M67.0405 46.601H34.8638C34.0427 46.601 33.3773 47.2666 33.3773 48.0875C33.3773 48.9084 34.0427 49.574 34.8638 49.574H67.0405C67.8616 49.574 68.5271 48.9084 68.5271 48.0875C68.5271 47.2666 67.8616 46.601 67.0405 46.601Z" fill="white"/>
<path d="M67.0406 58.5598H34.8638C34.0427 58.5598 33.3773 59.2255 33.3773 60.0464C33.3773 60.8672 34.0427 61.5329 34.8638 61.5329H67.0406C67.8616 61.5329 68.5271 60.8672 68.5271 60.0464C68.5271 59.2255 67.8616 58.5598 67.0406 58.5598Z" fill="white"/>
<path d="M67.0406 76.4154H34.8638C34.0427 76.4154 33.3773 77.0811 33.3773 77.9019C33.3773 78.7228 34.0427 79.3885 34.8638 79.3885H67.0406C67.8616 79.3885 68.5271 78.7228 68.5271 77.9019C68.5271 77.0811 67.8616 76.4154 67.0406 76.4154Z" fill="white"/>
<path d="M67.0406 82.3125H34.8638C34.0427 82.3125 33.3773 82.9782 33.3773 83.799C33.3773 84.6199 34.0427 85.2856 34.8638 85.2856H67.0406C67.8616 85.2856 68.5271 84.6199 68.5271 83.799C68.5271 82.9782 67.8616 82.3125 67.0406 82.3125Z" fill="white"/>
<path d="M72.998 4.90581H67.7066V1.48653C67.7066 0.665459 67.0412 0 66.2201 0C65.399 0 64.7336 0.665658 64.7336 1.48653V4.90561H59.0186V1.48653C59.0186 0.665459 58.3531 0 57.5321 0C56.711 0 56.0455 0.665658 56.0455 1.48653V4.90561H50.3303V1.48653C50.3303 0.665459 49.6649 0 48.8438 0C48.0228 0 47.3573 0.665658 47.3573 1.48653V4.90561H41.6421V1.48653C41.6421 0.665459 40.9766 0 40.1556 0C39.3345 0 38.669 0.665658 38.669 1.48653V4.90561H32.9539V1.48653C32.9539 0.665459 32.2884 0 31.4673 0C30.6463 0 29.9808 0.665658 29.9808 1.48653V4.90561H24.2656V1.48653C24.2656 0.665459 23.6002 0 22.7791 0C21.958 0 21.2926 0.665658 21.2926 1.48653V4.90561H15.5768V1.48653C15.5768 0.665658 14.9113 0 14.0903 0C13.2692 0 12.6037 0.665658 12.6037 1.48653V4.90561H7.31255C5.27316 4.90561 3.61377 6.5648 3.61377 8.60439V97.7952C3.61377 99.8348 5.27296 101.494 7.31255 101.494H72.998C75.0374 101.494 76.6968 99.8348 76.6968 97.7952V8.60439C76.6966 6.56499 75.0374 4.90581 72.998 4.90581ZM72.998 98.5207H7.31255C6.91252 98.5207 6.58703 98.1952 6.58703 97.7952V8.60439C6.58703 8.20436 6.91232 7.87887 7.31255 7.87887H12.6037V11.2981C12.6037 12.1192 13.2692 12.7847 14.0903 12.7847C14.9113 12.7847 15.5768 12.119 15.5768 11.2981V7.87906H21.292V11.2983C21.292 12.1194 21.9574 12.7849 22.7785 12.7849C23.5996 12.7849 24.265 12.1192 24.265 11.2983V7.87906H29.9802V11.2983C29.9802 12.1194 30.6457 12.7849 31.4667 12.7849C32.2878 12.7849 32.9533 12.1192 32.9533 11.2983V7.87906H38.6684V11.2983C38.6684 12.1194 39.3339 12.7849 40.155 12.7849C40.9761 12.7849 41.6415 12.1192 41.6415 11.2983V7.87906H47.3567V11.2983C47.3567 12.1194 48.0222 12.7849 48.8432 12.7849C49.6643 12.7849 50.3298 12.1192 50.3298 11.2983V7.87906H56.0449V11.2983C56.0449 12.1194 56.7104 12.7849 57.5315 12.7849C58.3525 12.7849 59.018 12.1192 59.018 11.2983V7.87906H64.733V11.2983C64.733 12.1194 65.3984 12.7849 66.2195 12.7849C67.0406 12.7849 67.706 12.1192 67.706 11.2983V7.87906H72.9974C73.3974 7.87906 73.7229 8.20456 73.7229 8.60459V97.7952H73.7235C73.7235 98.1952 73.3982 98.5207 72.998 98.5207Z" fill="white"/>
<path d="M94.3537 5.84717H87.5163C85.5719 5.84717 83.9898 7.42905 83.9898 9.37369V85.3173C83.9898 85.3211 83.9898 85.3251 83.9898 85.3288V85.5956L89.0728 99.2644C89.365 100.051 90.0959 100.559 90.9348 100.559C90.9348 100.559 90.935 100.559 90.9352 100.559C91.7739 100.559 92.5048 100.051 92.7974 99.2646L97.8802 85.5956V85.3288C97.8802 85.3251 97.8802 85.3211 97.8802 85.3173V9.37369C97.8802 7.42924 96.2981 5.84717 94.3537 5.84717ZM90.9352 95.7423L87.3506 86.1031C89.6612 85.2186 92.209 85.2186 94.5194 86.1031L90.9352 95.7423ZM94.907 83.088C92.3222 82.2574 89.548 82.2574 86.9631 83.088V22.1179H94.907V83.088ZM94.907 19.1447H86.9631V9.37369C86.9631 9.06861 87.2113 8.82043 87.5163 8.82043H94.3537C94.6588 8.82043 94.907 9.06861 94.907 9.37369V19.1447Z" fill="white"/>
<path d="M67.0405 22.7822H45.7222C44.9011 22.7822 44.2357 23.4479 44.2357 24.2688C44.2357 25.0896 44.9011 25.7553 45.7222 25.7553H67.0405C67.8616 25.7553 68.527 25.0896 68.527 24.2688C68.527 23.4479 67.8618 22.7822 67.0405 22.7822Z" fill="white"/>
<path d="M38.8054 22.7825H34.864C34.0429 22.7825 33.3774 23.4481 33.3774 24.269C33.3774 25.0899 34.0427 25.7555 34.864 25.7555H38.8054C39.6265 25.7555 40.2919 25.0899 40.2919 24.269C40.2919 23.4481 39.6265 22.7825 38.8054 22.7825Z" fill="white"/>
<path d="M67.0405 64.4568H63.0989C62.2778 64.4568 61.6124 65.1224 61.6124 65.9433C61.6124 66.7642 62.2778 67.4299 63.0989 67.4299H67.0405C67.8616 67.4299 68.527 66.7642 68.527 65.9433C68.527 65.1224 67.8618 64.4568 67.0405 64.4568Z" fill="white"/>
<path d="M56.1821 64.4568H34.864C34.0429 64.4568 33.3774 65.1224 33.3774 65.9433C33.3774 66.7642 34.0429 67.4299 34.864 67.4299H56.1821C57.0031 67.4299 57.6686 66.7642 57.6686 65.9433C57.6686 65.1224 57.0031 64.4568 56.1821 64.4568Z" fill="white"/>
</g>
<defs>
<clipPath id="clip0">
<rect width="101.494" height="101.494" fill="white"/>
</clipPath>
</defs>
</svg>
