<svg width="15" height="15" viewBox="0 0 15 15" fill="none" xmlns="http://www.w3.org/2000/svg">
<g id="timer_24px">
<path id="icon/image/timer_24px" fill-rule="evenodd" clip-rule="evenodd" d="M5.625 0.940674H9.375V2.19067H5.625V0.940674ZM6.875 9.06568V5.31568H8.125V9.06568H6.875ZM11.8938 4.92818L12.7813 4.04068C12.5125 3.72193 12.2188 3.42193 11.9 3.15943L11.0125 4.04693C10.0438 3.27193 8.825 2.80943 7.5 2.80943C4.39375 2.80943 1.875 5.32818 1.875 8.43443C1.875 11.5407 4.3875 14.0594 7.5 14.0594C10.6125 14.0594 13.125 11.5407 13.125 8.43443C13.125 7.11568 12.6625 5.89693 11.8938 4.92818ZM3.125 8.44067C3.125 10.8594 5.08125 12.8157 7.5 12.8157C9.91875 12.8157 11.875 10.8594 11.875 8.44067C11.875 6.02192 9.91875 4.06567 7.5 4.06567C5.08125 4.06567 3.125 6.02192 3.125 8.44067Z" fill="black"/>
</g>
</svg>
