<svg width="15" height="15" viewBox="0 0 15 15" fill="none" xmlns="http://www.w3.org/2000/svg">
<g id="timer_24px">
<path id="icon/image/timer_24px" fill-rule="evenodd" clip-rule="evenodd" d="M5.625 0.940613H9.375V2.19061H5.625V0.940613ZM6.875 9.06561V5.31562H8.125V9.06561H6.875ZM11.8938 4.92812L12.7813 4.04062C12.5125 3.72187 12.2188 3.42187 11.9 3.15937L11.0125 4.04687C10.0438 3.27187 8.825 2.80937 7.5 2.80937C4.39375 2.80937 1.875 5.32812 1.875 8.43437C1.875 11.5406 4.3875 14.0594 7.5 14.0594C10.6125 14.0594 13.125 11.5406 13.125 8.43437C13.125 7.11562 12.6625 5.89687 11.8938 4.92812ZM3.125 8.44061C3.125 10.8594 5.08125 12.8156 7.5 12.8156C9.91875 12.8156 11.875 10.8594 11.875 8.44061C11.875 6.02186 9.91875 4.06561 7.5 4.06561C5.08125 4.06561 3.125 6.02186 3.125 8.44061Z" fill="black"/>
</g>
</svg>
