<svg width="34" height="30" viewBox="0 0 34 30" fill="none" xmlns="http://www.w3.org/2000/svg">
<g clip-path="url(#clip0)">
<path d="M21.3526 9.87866C21.061 9.87866 20.8242 10.1056 20.8242 10.3863C20.8242 10.6668 21.061 10.8941 21.3526 10.8941C21.6449 10.8941 21.881 10.6668 21.881 10.3863C21.881 10.1056 21.6449 9.87866 21.3526 9.87866Z" fill="black"/>
<path d="M11.7523 19.1051C11.46 19.1051 11.2239 19.3326 11.2239 19.6129C11.2239 19.8938 11.46 20.1207 11.7523 20.1207C12.0439 20.1207 12.2806 19.8938 12.2806 19.6129C12.2806 19.3326 12.0439 19.1051 11.7523 19.1051Z" fill="black"/>
<path d="M29.4212 5.12409C29.2428 5.08422 29.0554 5.13599 28.9266 5.26096L26.7361 7.38286H25.686L24.53 6.23176V5.20839L26.6891 3.10236C26.8168 2.97779 26.8689 2.79866 26.8265 2.62827C26.7844 2.45807 26.654 2.3208 26.4815 2.26486C25.939 2.08911 25.3715 2.00005 24.7942 2.00005C23.0732 2.00005 21.5098 2.77129 20.5046 4.116C19.5639 5.37482 19.2739 6.9175 19.6893 8.39393L15.7973 12.1345L9.31316 5.88839V4.6625C9.31316 4.48417 9.21574 4.31873 9.05661 4.22709L5.32062 2.07245C5.11257 1.95244 4.84653 1.98398 4.67522 2.14882L3.18091 3.58478C3.0096 3.74962 2.97678 4.00531 3.10144 4.20527L5.34291 7.79586C5.43827 7.9488 5.6102 8.04223 5.79575 8.04243L7.07087 8.04282L13.5556 14.2889L9.67848 18.0152C8.14227 17.6161 6.5363 17.8952 5.22589 18.7999C3.82755 19.7654 3.0257 21.2676 3.0257 22.9215C3.0257 23.4762 3.11837 24.0219 3.30124 24.543C3.35965 24.7098 3.50392 24.8358 3.68224 24.8754C3.86078 24.9153 4.04798 24.8635 4.17698 24.7386L6.36726 22.6169H7.42319L8.62627 23.7731V24.788L6.41865 26.893C6.28862 27.017 6.23475 27.1969 6.27624 27.3685C6.31752 27.5399 6.44858 27.6785 6.62216 27.7347C7.16436 27.9104 7.73216 27.9995 8.30925 27.9995C10.0302 27.9995 11.593 27.2286 12.5978 25.8847C13.5391 24.6253 13.8295 23.082 13.4143 21.6056L16.5282 18.6129L17.2415 19.3575L16.9141 19.6719C16.7077 19.8703 16.7077 20.1918 16.9141 20.3902C17.1205 20.5884 17.4549 20.5884 17.6615 20.3902L17.9579 20.1054L24.6505 27.0922C24.6555 27.0973 24.6606 27.1023 24.6658 27.1072C25.9042 28.2974 27.9105 28.2978 29.1495 27.107C30.385 25.919 30.385 23.986 29.1495 22.798C29.1442 22.7928 29.1386 22.7878 29.133 22.7829L21.852 16.363L22.1451 16.0813C22.3515 15.8832 22.3515 15.5616 22.1451 15.3633C21.9387 15.1649 21.6043 15.1649 21.3977 15.3633L21.0726 15.6759L20.2964 14.9911L23.4253 11.9839C23.8701 12.0982 24.3291 12.1561 24.7942 12.1561C27.7077 12.1561 30.0777 9.87809 30.0777 7.07818C30.0777 6.52335 29.985 5.97785 29.8022 5.45655C29.7438 5.28972 29.5995 5.16376 29.4212 5.12409ZM7.66405 7.17637C7.56498 7.08095 7.43062 7.03235 7.29027 7.03235L6.09523 7.03196L4.21991 4.02277L5.13074 3.14739L8.25641 4.95012V6.09865C8.25641 6.23314 8.31193 6.36208 8.41079 6.4573L15.0502 12.8528L14.3028 13.5708L7.66405 7.17637ZM21.104 17.0819L28.4098 23.5234C29.2259 24.316 29.2234 25.5995 28.4022 26.3891C27.5791 27.1802 26.2466 27.1826 25.4202 26.3961L18.7057 19.3865L21.104 17.0819ZM20.3246 16.3946L17.9893 18.6387L17.276 17.894L19.5484 15.7098L20.3246 16.3946ZM24.7942 11.1405C24.332 11.1405 23.8776 11.0693 23.4437 10.9288C23.2536 10.8675 23.0435 10.9147 22.9015 11.051C20.2526 13.5968 14.5449 19.0822 12.4432 21.1023C12.3012 21.2388 12.2518 21.4408 12.316 21.6236C12.7552 22.8771 12.5451 24.2141 11.7394 25.2922C10.9359 26.3671 9.6855 26.9838 8.30925 26.9838C8.15466 26.9838 8.00089 26.9757 7.84857 26.96L9.52678 25.3596C9.62668 25.2644 9.68302 25.1347 9.68302 24.9992V23.5627C9.68302 23.428 9.6273 23.2988 9.52823 23.2036L8.01554 21.7498C7.91647 21.6546 7.78211 21.601 7.64197 21.601H6.14724C6.00627 21.601 5.87129 21.6552 5.77201 21.7512L4.10701 23.3641C4.0905 23.2177 4.08224 23.0699 4.08224 22.9213C4.08224 21.5984 4.72372 20.397 5.84239 19.6247C6.96395 18.8503 8.35527 18.6482 9.6597 19.0705C9.84979 19.1322 10.0599 19.0848 10.2019 18.9483C10.231 18.9205 20.6528 8.90412 20.6602 8.89698C20.8022 8.7605 20.8514 8.55877 20.7874 8.37588C20.348 7.12241 20.5577 5.78583 21.3628 4.70852C22.1669 3.63259 23.4175 3.01567 24.794 3.01567C24.9533 3.01567 25.1116 3.0242 25.2685 3.04087L23.6251 4.64385C23.5277 4.73887 23.4732 4.86681 23.4732 5.00011V6.43667C23.4732 6.56838 23.5263 6.69474 23.6214 6.78936L25.0813 8.24317C25.1807 8.34235 25.318 8.39829 25.4614 8.39829H26.9562C27.0969 8.39829 27.2319 8.34434 27.3312 8.24813L28.9962 6.63543C29.0127 6.78182 29.021 6.9296 29.021 7.07818C29.021 9.31811 27.1248 11.1405 24.7942 11.1405Z" fill="black"/>
<path d="M19.4847 11.4633L12.8728 17.818C12.6666 18.0161 12.6666 18.3377 12.8728 18.536C13.0792 18.7344 13.4137 18.7344 13.6201 18.536L20.2321 12.1814C20.4385 11.9833 20.4385 11.6617 20.2321 11.4633C20.0257 11.265 19.6911 11.265 19.4847 11.4633Z" fill="black"/>
<path d="M26.1616 24.9531C26.368 25.1509 26.7026 25.1509 26.909 24.952C27.115 24.7534 27.1144 24.4318 26.9078 24.2339L22.1452 19.6713C21.9386 19.4733 21.6038 19.4739 21.398 19.6725C21.1918 19.8712 21.1924 20.1926 21.399 20.3906L26.1616 24.9531Z" fill="black"/>
</g>
<defs>
<clipPath id="clip0">
<rect x="3" y="2" width="27" height="26" fill="white"/>
</clipPath>
</defs>
</svg>
