<svg id="svg" version="1.1" xmlns="http://www.w3.org/2000/svg" xmlns:xlink="http://www.w3.org/1999/xlink" width="400" height="400" viewBox="0, 0, 400,400"><g id="svgg"><path id="path0" d="M190.383 94.028 C 127.508 99.241,82.741 161.250,97.274 223.000 C 99.485 232.398,101.187 237.051,106.009 246.887 L 108.504 251.975 107.842 254.487 C 107.479 255.869,106.733 258.620,106.185 260.600 C 105.637 262.580,104.753 265.820,104.221 267.800 C 103.688 269.780,102.805 273.020,102.257 275.000 C 101.710 276.980,100.691 280.670,99.992 283.200 C 98.433 288.847,97.707 291.474,95.790 298.400 C 93.890 305.266,93.760 306.003,94.455 305.990 C 95.081 305.979,96.000 305.755,102.600 303.997 C 105.240 303.294,109.020 302.307,111.000 301.803 C 112.980 301.300,118.110 299.968,122.400 298.844 C 126.690 297.720,133.620 295.908,137.800 294.817 C 141.980 293.726,146.335 292.575,147.479 292.259 L 149.558 291.684 152.879 293.349 C 176.458 305.170,204.001 307.655,230.200 300.326 C 232.620 299.649,234.780 298.957,235.000 298.789 C 235.220 298.620,236.300 298.210,237.400 297.878 C 242.924 296.212,252.628 291.220,259.800 286.355 C 320.349 245.288,322.083 157.378,263.200 114.056 C 242.492 98.820,217.035 91.819,190.383 94.028 M210.400 111.589 C 270.464 119.968,304.864 179.204,281.488 234.000 C 270.423 259.939,244.405 280.803,217.428 285.369 C 215.243 285.739,213.336 286.116,213.190 286.206 C 213.044 286.296,210.104 286.568,206.658 286.809 C 188.724 288.063,171.445 283.979,155.262 274.661 C 151.924 272.740,153.772 272.525,138.000 276.664 C 122.953 280.613,119.053 281.586,118.895 281.429 C 118.817 281.350,119.046 280.232,119.404 278.943 C 123.063 265.787,125.609 256.500,126.727 252.238 C 127.658 248.686,127.796 249.234,124.753 244.400 C 107.149 216.429,108.134 177.543,127.146 150.000 C 138.773 133.155,158.683 118.570,175.200 114.797 C 176.410 114.520,177.688 114.146,178.040 113.965 C 178.600 113.677,187.712 111.932,191.000 111.484 C 193.395 111.157,207.866 111.235,210.400 111.589 M159.000 151.397 C 154.300 153.863,149.390 160.990,147.623 167.909 C 144.008 182.069,151.524 198.630,171.025 219.473 C 184.350 233.715,197.503 241.739,218.200 248.254 C 223.469 249.912,233.542 249.924,237.700 248.277 C 249.135 243.746,253.966 237.488,253.993 227.170 C 254.003 223.483,255.144 224.254,236.524 215.363 C 228.373 211.471,226.860 211.287,224.896 213.947 C 222.389 217.343,217.173 223.541,215.828 224.722 C 214.050 226.283,213.719 226.291,210.200 224.855 C 195.574 218.887,184.328 209.366,175.730 195.671 C 172.779 190.970,172.679 191.391,178.334 184.773 C 179.508 183.400,181.026 181.146,181.707 179.764 L 182.946 177.253 181.698 174.126 C 176.484 161.068,172.756 152.615,171.763 151.600 C 170.199 150.002,161.908 149.870,159.000 151.397 " stroke="none" fill="#fafbfb" fill-rule="evenodd"></path><path id="path1" d="M189.200 0.420 C 180.022 0.807,171.434 1.581,171.267 2.037 C 171.193 2.236,170.596 2.400,169.939 2.400 C 168.115 2.400,159.827 3.664,159.600 3.977 C 159.490 4.129,157.562 4.550,155.315 4.913 C 153.069 5.277,150.909 5.748,150.515 5.962 C 150.122 6.175,148.360 6.664,146.600 7.048 C 144.840 7.432,143.310 7.866,143.200 8.012 C 143.090 8.158,141.650 8.600,140.000 8.994 C 138.350 9.387,136.820 9.848,136.600 10.017 C 136.380 10.186,135.120 10.635,133.800 11.015 C 132.480 11.395,131.310 11.831,131.200 11.984 C 131.090 12.137,129.785 12.606,128.300 13.026 C 126.815 13.446,125.600 13.914,125.600 14.067 C 125.600 14.219,124.610 14.631,123.400 14.983 C 122.190 15.335,121.200 15.758,121.200 15.924 C 121.200 16.090,120.380 16.467,119.378 16.763 C 118.376 17.059,117.339 17.518,117.074 17.783 C 116.809 18.048,115.559 18.590,114.296 18.987 C 113.033 19.385,112.000 19.840,112.000 20.000 C 112.000 20.160,111.145 20.618,110.100 21.017 C 109.055 21.416,107.963 21.980,107.672 22.271 C 107.381 22.562,106.886 22.800,106.571 22.800 C 106.257 22.800,105.664 23.136,105.254 23.546 C 104.843 23.957,103.673 24.611,102.654 25.001 C 101.634 25.390,100.800 25.845,100.800 26.011 C 100.800 26.177,100.080 26.601,99.200 26.953 C 98.320 27.305,97.600 27.740,97.600 27.920 C 97.600 28.099,96.839 28.582,95.909 28.992 C 94.979 29.402,93.865 30.067,93.434 30.469 C 93.002 30.871,92.422 31.200,92.144 31.200 C 91.867 31.200,91.496 31.427,91.320 31.704 C 91.144 31.981,90.325 32.562,89.500 32.995 C 88.675 33.428,88.000 33.900,88.000 34.045 C 88.000 34.190,87.370 34.608,86.600 34.973 C 85.830 35.339,85.200 35.768,85.200 35.928 C 85.200 36.087,84.529 36.574,83.710 37.009 C 82.890 37.444,81.911 38.070,81.535 38.400 C 81.159 38.730,80.434 39.308,79.925 39.684 C 76.563 42.167,70.065 47.444,69.385 48.242 C 68.937 48.769,68.413 49.200,68.220 49.200 C 67.793 49.200,65.492 51.376,58.242 58.635 C 50.611 66.275,48.800 68.179,48.800 68.564 C 48.800 68.745,48.080 69.592,47.200 70.446 C 46.320 71.300,45.600 72.102,45.600 72.228 C 45.600 72.437,43.177 75.472,41.500 77.362 C 41.115 77.796,40.800 78.271,40.800 78.417 C 40.800 78.563,40.395 79.147,39.900 79.714 C 38.419 81.409,36.400 84.253,36.400 84.643 C 36.400 84.843,36.040 85.232,35.600 85.507 C 35.160 85.782,34.800 86.266,34.800 86.584 C 34.800 86.901,34.573 87.304,34.296 87.480 C 34.019 87.656,33.438 88.475,33.005 89.300 C 32.572 90.125,32.092 90.800,31.938 90.800 C 31.784 90.800,31.340 91.520,30.952 92.400 C 30.564 93.280,30.120 94.000,29.966 94.000 C 29.813 94.000,29.399 94.720,29.047 95.600 C 28.695 96.480,28.260 97.200,28.080 97.200 C 27.901 97.200,27.417 97.965,27.005 98.900 C 26.592 99.835,26.018 100.838,25.728 101.129 C 25.437 101.419,25.200 101.880,25.200 102.153 C 25.200 102.426,24.870 103.003,24.467 103.436 C 24.064 103.869,23.409 105.073,23.013 106.111 C 22.616 107.150,22.171 108.000,22.025 108.000 C 21.878 108.000,21.434 108.900,21.039 110.000 C 20.643 111.100,20.193 112.000,20.039 112.000 C 19.884 112.000,19.434 112.900,19.039 114.000 C 18.643 115.100,18.177 116.000,18.003 116.000 C 17.829 116.000,17.363 117.080,16.968 118.400 C 16.572 119.720,16.119 120.800,15.962 120.800 C 15.804 120.800,15.354 121.835,14.962 123.100 C 14.570 124.365,14.130 125.490,13.984 125.600 C 13.838 125.710,13.398 126.790,13.006 128.000 C 12.615 129.210,12.160 130.380,11.995 130.600 C 11.831 130.820,11.388 132.080,11.010 133.400 C 10.633 134.720,10.166 135.992,9.973 136.228 C 9.780 136.463,9.333 137.901,8.980 139.424 C 8.627 140.947,8.174 142.391,7.973 142.632 C 7.773 142.874,7.316 144.495,6.957 146.236 C 6.599 147.976,6.173 149.490,6.012 149.600 C 5.851 149.710,5.399 151.600,5.008 153.800 C 4.617 156.000,4.168 157.890,4.009 158.000 C 3.705 158.211,2.400 166.728,2.400 168.500 C 2.400 169.068,2.239 169.593,2.042 169.667 C 1.598 169.832,0.955 175.898,0.353 185.600 C -0.469 198.859,0.702 230.241,2.038 230.733 C 2.237 230.807,2.399 231.347,2.398 231.933 C 2.394 233.568,3.693 241.774,3.991 242.000 C 4.136 242.110,4.571 243.998,4.958 246.195 C 5.345 248.393,5.798 250.283,5.964 250.395 C 6.131 250.508,6.601 252.265,7.010 254.300 C 7.418 256.335,7.875 258.000,8.025 258.000 C 8.175 258.000,8.625 259.440,9.025 261.200 C 9.424 262.960,9.877 264.400,10.031 264.400 C 10.185 264.400,10.635 265.615,11.031 267.100 C 11.427 268.585,11.879 269.890,12.036 270.000 C 12.192 270.110,12.621 271.235,12.989 272.500 C 13.356 273.765,13.781 274.800,13.933 274.800 C 14.086 274.800,14.545 275.970,14.955 277.400 C 15.364 278.830,15.848 280.000,16.029 280.000 C 16.211 280.000,16.671 280.990,17.053 282.200 C 17.434 283.410,17.875 284.400,18.033 284.400 C 18.191 284.400,18.643 285.300,19.039 286.400 C 19.434 287.500,19.884 288.400,20.039 288.400 C 20.193 288.400,20.643 289.300,21.039 290.400 C 21.434 291.500,21.884 292.400,22.039 292.400 C 22.193 292.400,22.643 293.300,23.039 294.400 C 23.434 295.500,23.875 296.400,24.018 296.400 C 24.161 296.400,24.618 297.165,25.034 298.100 C 25.450 299.035,26.107 300.149,26.495 300.575 C 26.883 301.002,27.200 301.574,27.200 301.847 C 27.200 302.120,27.477 302.619,27.815 302.957 C 28.153 303.295,28.695 304.208,29.020 304.986 C 29.345 305.764,29.776 306.400,29.978 306.400 C 30.181 306.400,30.448 306.720,30.572 307.112 C 30.960 308.333,33.991 312.919,35.613 314.739 C 35.951 315.117,36.544 316.096,36.932 316.913 C 37.320 317.731,37.814 318.400,38.029 318.400 C 38.244 318.400,38.593 318.855,38.804 319.410 C 39.015 319.966,39.461 320.525,39.794 320.653 C 40.127 320.781,40.400 321.059,40.400 321.271 C 40.400 321.483,41.120 322.510,42.000 323.554 C 42.880 324.598,43.600 325.567,43.600 325.708 C 43.600 325.848,44.005 326.390,44.500 326.911 C 44.995 327.433,46.210 328.821,47.200 329.996 C 53.217 337.137,62.837 346.758,70.003 352.800 C 71.177 353.790,72.532 355.005,73.015 355.500 C 73.497 355.995,74.008 356.400,74.150 356.400 C 74.292 356.400,75.711 357.449,77.304 358.731 C 78.897 360.013,80.515 361.177,80.900 361.318 C 81.285 361.459,81.600 361.752,81.600 361.969 C 81.600 362.185,82.275 362.678,83.100 363.063 C 83.925 363.448,84.835 364.087,85.123 364.482 C 85.410 364.877,85.845 365.200,86.089 365.200 C 86.333 365.200,86.818 365.472,87.166 365.805 C 88.181 366.775,91.738 369.063,92.709 369.371 C 93.199 369.527,93.600 369.813,93.600 370.008 C 93.600 370.203,94.275 370.680,95.100 371.068 C 95.925 371.456,96.949 372.095,97.375 372.487 C 97.802 372.879,98.374 373.200,98.647 373.200 C 98.920 373.200,99.381 373.432,99.671 373.715 C 99.962 373.999,100.920 374.565,101.800 374.974 C 102.680 375.383,103.490 375.843,103.600 375.996 C 103.710 376.148,104.643 376.592,105.674 376.981 C 106.705 377.371,107.631 377.904,107.732 378.166 C 107.833 378.429,108.654 378.888,109.557 379.186 C 110.461 379.484,111.200 379.866,111.200 380.036 C 111.200 380.205,112.190 380.631,113.400 380.983 C 114.610 381.335,115.600 381.768,115.600 381.946 C 115.600 382.124,116.590 382.607,117.800 383.018 C 119.010 383.429,120.000 383.889,120.000 384.040 C 120.000 384.190,121.080 384.637,122.400 385.032 C 123.720 385.428,124.800 385.875,124.800 386.026 C 124.800 386.177,125.970 386.636,127.400 387.045 C 128.830 387.455,130.000 387.907,130.000 388.051 C 130.000 388.194,131.215 388.635,132.700 389.031 C 134.185 389.427,135.490 389.868,135.600 390.012 C 135.710 390.155,137.060 390.605,138.600 391.012 C 140.140 391.418,141.490 391.868,141.600 392.011 C 141.710 392.154,143.420 392.603,145.400 393.009 C 147.380 393.415,149.090 393.866,149.200 394.011 C 149.310 394.157,151.110 394.602,153.200 395.000 C 155.290 395.398,157.090 395.858,157.200 396.021 C 157.310 396.184,159.740 396.639,162.600 397.031 C 165.460 397.423,167.890 397.866,168.000 398.016 C 169.705 400.343,230.309 400.341,232.000 398.014 C 232.110 397.863,234.447 397.425,237.194 397.041 C 239.941 396.657,242.281 396.212,242.394 396.052 C 242.507 395.891,244.400 395.429,246.600 395.024 C 248.800 394.619,250.690 394.168,250.800 394.022 C 250.910 393.876,252.530 393.433,254.400 393.038 C 256.270 392.643,257.890 392.201,258.000 392.057 C 258.110 391.912,259.550 391.456,261.200 391.043 C 262.850 390.630,264.290 390.170,264.400 390.022 C 264.510 389.873,265.815 389.427,267.300 389.031 C 268.785 388.635,270.000 388.190,270.000 388.043 C 270.000 387.895,270.855 387.530,271.900 387.232 C 272.945 386.933,274.700 386.275,275.800 385.770 C 276.900 385.265,278.295 384.731,278.900 384.583 C 279.505 384.434,280.000 384.170,280.000 383.994 C 280.000 383.818,280.990 383.363,282.200 382.982 C 283.410 382.602,284.400 382.153,284.400 381.985 C 284.400 381.818,285.300 381.357,286.400 380.961 C 287.500 380.566,288.400 380.116,288.400 379.961 C 288.400 379.807,289.300 379.357,290.400 378.961 C 291.500 378.566,292.400 378.116,292.400 377.961 C 292.400 377.807,293.300 377.357,294.400 376.961 C 295.500 376.566,296.400 376.125,296.400 375.982 C 296.400 375.839,297.165 375.382,298.100 374.966 C 299.035 374.550,300.149 373.893,300.575 373.505 C 301.002 373.117,301.574 372.800,301.847 372.800 C 302.120 372.800,302.619 372.523,302.957 372.185 C 303.295 371.847,304.208 371.305,304.986 370.980 C 305.764 370.655,306.400 370.234,306.400 370.043 C 306.400 369.853,306.944 369.472,307.609 369.196 C 308.275 368.921,308.950 368.484,309.109 368.226 C 309.269 367.968,310.075 367.443,310.900 367.060 C 311.725 366.676,312.400 366.224,312.400 366.055 C 312.400 365.886,313.030 365.448,313.800 365.081 C 314.570 364.713,315.200 364.251,315.200 364.053 C 315.200 363.855,315.515 363.588,315.900 363.458 C 316.896 363.124,318.145 362.285,318.520 361.700 C 318.696 361.425,319.088 361.200,319.391 361.200 C 319.694 361.200,320.296 360.750,320.729 360.200 C 321.161 359.650,321.641 359.200,321.795 359.200 C 322.249 359.200,328.800 353.902,328.800 353.535 C 328.800 353.351,329.016 353.200,329.280 353.200 C 329.543 353.200,330.308 352.682,330.980 352.048 C 338.701 344.759,342.276 341.258,346.047 337.292 C 352.883 330.105,353.200 329.759,353.200 329.489 C 353.200 329.350,353.605 328.809,354.100 328.286 C 354.595 327.763,355.450 326.750,356.000 326.034 C 356.550 325.318,357.492 324.163,358.094 323.466 C 358.695 322.770,359.190 322.018,359.194 321.796 C 359.197 321.574,359.560 321.168,360.000 320.893 C 360.440 320.618,360.800 320.135,360.800 319.819 C 360.800 319.504,361.116 319.010,361.502 318.723 C 361.888 318.435,362.559 317.525,362.993 316.700 C 363.427 315.875,363.924 315.200,364.097 315.200 C 364.271 315.200,364.713 314.570,365.081 313.800 C 365.448 313.030,365.886 312.400,366.055 312.400 C 366.224 312.400,366.680 311.731,367.068 310.913 C 367.456 310.096,368.094 309.106,368.487 308.713 C 368.879 308.321,369.200 307.739,369.200 307.420 C 369.200 307.101,369.427 306.696,369.704 306.520 C 369.981 306.344,370.566 305.480,371.004 304.600 C 371.442 303.720,371.997 302.820,372.238 302.600 C 372.479 302.380,372.919 301.570,373.215 300.800 C 373.511 300.030,373.975 299.264,374.247 299.097 C 374.518 298.930,374.947 298.165,375.201 297.397 C 375.455 296.629,375.791 296.000,375.949 296.000 C 376.107 296.000,376.570 295.190,376.978 294.200 C 377.387 293.210,377.838 292.400,377.981 292.400 C 378.125 292.400,378.566 291.500,378.961 290.400 C 379.357 289.300,379.813 288.400,379.975 288.400 C 380.137 288.400,380.607 287.410,381.018 286.200 C 381.429 284.990,381.879 284.000,382.018 284.000 C 382.157 284.000,382.607 283.010,383.018 281.800 C 383.429 280.590,383.889 279.600,384.040 279.600 C 384.190 279.600,384.637 278.520,385.032 277.200 C 385.428 275.880,385.877 274.800,386.031 274.800 C 386.185 274.800,386.628 273.630,387.015 272.200 C 387.402 270.770,387.850 269.600,388.010 269.600 C 388.171 269.600,388.629 268.340,389.028 266.800 C 389.427 265.260,389.873 264.000,390.019 264.000 C 390.165 264.000,390.595 262.560,390.976 260.800 C 391.356 259.040,391.810 257.600,391.984 257.600 C 392.158 257.600,392.615 255.980,393.000 254.000 C 393.385 252.020,393.831 250.400,393.992 250.400 C 394.152 250.400,394.614 248.420,395.018 246.000 C 395.422 243.580,395.866 241.600,396.006 241.600 C 396.145 241.600,396.597 239.125,397.010 236.100 C 397.422 233.075,397.881 230.510,398.030 230.400 C 398.535 230.026,399.624 215.439,399.865 205.800 C 400.163 193.885,398.963 170.716,398.010 170.000 C 397.863 169.890,397.423 167.460,397.031 164.600 C 396.639 161.740,396.197 159.310,396.049 159.200 C 395.901 159.090,395.452 157.020,395.051 154.600 C 394.650 152.180,394.192 150.110,394.034 150.000 C 393.876 149.890,393.436 148.366,393.057 146.613 C 392.677 144.861,392.232 143.331,392.067 143.213 C 391.902 143.096,391.444 141.605,391.049 139.900 C 390.655 138.195,390.192 136.800,390.021 136.800 C 389.849 136.800,389.477 135.705,389.193 134.367 C 388.909 133.029,388.434 131.692,388.138 131.395 C 387.842 131.099,387.600 130.685,387.600 130.475 C 387.600 129.844,386.260 125.816,385.979 125.600 C 385.835 125.490,385.407 124.455,385.027 123.300 C 384.647 122.145,384.209 121.200,384.055 121.200 C 383.901 121.200,383.533 120.380,383.237 119.378 C 382.941 118.376,382.496 117.341,382.249 117.078 C 382.002 116.815,381.456 115.565,381.035 114.300 C 380.614 113.035,380.144 112.000,379.989 112.000 C 379.835 112.000,379.382 111.145,378.983 110.100 C 378.584 109.055,378.020 107.963,377.729 107.672 C 377.438 107.381,377.200 106.886,377.200 106.571 C 377.200 106.257,376.864 105.664,376.454 105.254 C 376.043 104.843,375.389 103.673,374.999 102.654 C 374.610 101.634,374.155 100.800,373.989 100.800 C 373.823 100.800,373.399 100.080,373.047 99.200 C 372.695 98.320,372.260 97.600,372.080 97.600 C 371.901 97.600,371.418 96.839,371.008 95.909 C 370.598 94.979,369.933 93.865,369.531 93.434 C 369.129 93.002,368.800 92.422,368.800 92.144 C 368.800 91.867,368.575 91.496,368.300 91.320 C 368.025 91.144,367.449 90.370,367.020 89.600 C 366.591 88.830,365.916 87.851,365.520 87.425 C 365.124 86.998,364.800 86.453,364.800 86.213 C 364.800 85.974,364.485 85.481,364.100 85.117 C 363.715 84.754,362.770 83.521,362.000 82.376 C 361.230 81.232,360.285 79.959,359.900 79.548 C 359.515 79.137,359.200 78.696,359.200 78.569 C 359.200 78.381,356.208 74.555,353.750 71.600 C 347.548 64.142,335.134 51.727,328.661 46.508 C 328.326 46.238,327.053 45.203,325.832 44.208 C 324.610 43.214,323.472 42.400,323.302 42.400 C 323.132 42.400,322.768 42.040,322.493 41.600 C 322.218 41.160,321.731 40.800,321.411 40.800 C 321.090 40.800,320.635 40.440,320.400 40.000 C 320.165 39.560,319.753 39.193,319.486 39.184 C 319.219 39.175,318.377 38.635,317.615 37.984 C 316.853 37.333,316.005 36.800,315.729 36.800 C 315.454 36.800,315.035 36.440,314.800 36.000 C 314.565 35.560,314.142 35.200,313.861 35.200 C 313.581 35.200,313.002 34.876,312.575 34.480 C 312.149 34.084,311.170 33.409,310.400 32.980 C 309.630 32.551,308.856 31.975,308.680 31.700 C 308.504 31.425,308.099 31.200,307.780 31.200 C 307.461 31.200,306.879 30.879,306.487 30.487 C 306.094 30.094,305.059 29.435,304.187 29.022 C 303.314 28.609,302.420 28.058,302.200 27.797 C 301.980 27.537,301.170 27.079,300.400 26.780 C 299.630 26.482,298.820 26.032,298.600 25.780 C 298.380 25.529,297.570 25.081,296.800 24.784 C 296.030 24.488,295.310 24.131,295.200 23.991 C 295.090 23.852,294.460 23.456,293.800 23.112 C 287.757 19.963,286.382 19.300,284.900 18.821 C 283.965 18.519,283.200 18.130,283.200 17.956 C 283.200 17.783,282.210 17.329,281.000 16.947 C 279.790 16.566,278.800 16.124,278.800 15.964 C 278.800 15.805,277.765 15.354,276.500 14.962 C 275.235 14.570,274.110 14.126,274.000 13.974 C 273.890 13.822,272.720 13.365,271.400 12.960 C 270.080 12.554,268.910 12.106,268.800 11.965 C 268.690 11.823,267.295 11.374,265.700 10.965 C 264.105 10.557,262.800 10.098,262.800 9.946 C 262.800 9.793,261.405 9.345,259.700 8.951 C 257.995 8.556,256.510 8.119,256.400 7.980 C 256.290 7.840,254.760 7.399,253.000 6.999 C 251.240 6.599,249.620 6.143,249.400 5.985 C 249.180 5.828,247.110 5.375,244.800 4.980 C 242.490 4.584,240.510 4.135,240.400 3.981 C 240.175 3.665,231.899 2.400,230.061 2.400 C 229.404 2.400,228.807 2.238,228.733 2.039 C 228.554 1.554,220.578 0.871,209.600 0.400 C 199.860 -0.018,199.589 -0.018,189.200 0.420 M210.600 93.578 C 267.073 100.489,306.571 143.873,306.579 199.000 C 306.590 277.473,225.486 327.981,153.698 294.207 L 149.597 292.278 146.898 292.903 C 145.414 293.247,142.446 293.996,140.301 294.569 C 133.103 296.490,129.485 297.440,115.699 301.027 C 113.663 301.557,110.243 302.450,108.099 303.012 C 105.955 303.573,102.850 304.360,101.200 304.761 C 99.550 305.161,97.220 305.785,96.022 306.146 C 93.254 306.981,92.918 306.655,93.801 303.996 C 94.180 302.855,94.720 300.994,95.001 299.861 C 95.282 298.727,96.086 295.730,96.787 293.200 C 97.488 290.670,98.498 287.025,99.031 285.100 C 99.564 283.175,100.436 280.025,100.969 278.100 C 101.502 276.175,102.504 272.530,103.197 270.000 C 103.889 267.470,104.801 264.140,105.223 262.600 C 105.645 261.060,106.465 257.995,107.046 255.788 L 108.102 251.777 105.820 247.388 C 88.289 213.676,90.591 171.878,111.693 140.784 C 113.072 138.752,114.497 136.646,114.859 136.104 C 129.514 114.196,158.966 97.496,189.800 93.612 C 193.161 93.188,207.230 93.165,210.600 93.578 M190.400 112.056 C 127.103 118.559,92.419 189.635,125.524 245.000 C 126.314 246.320,127.223 247.717,127.546 248.105 C 128.190 248.879,128.253 248.530,126.071 256.400 C 125.431 258.710,124.443 262.310,123.876 264.400 C 123.309 266.490,122.389 269.820,121.830 271.800 C 120.049 278.117,119.490 280.424,119.694 280.627 C 119.908 280.841,124.065 279.863,134.200 277.213 C 137.720 276.293,142.940 274.941,145.800 274.208 C 148.660 273.475,151.294 272.757,151.653 272.613 C 152.059 272.450,153.137 272.881,154.497 273.751 C 180.309 290.263,218.015 290.668,244.690 274.721 C 245.537 274.214,246.535 273.620,246.907 273.400 C 259.817 265.769,272.947 251.117,279.741 236.759 C 295.839 202.741,289.149 163.903,262.623 137.377 C 255.169 129.923,247.126 124.148,238.783 120.260 C 223.213 113.003,207.354 110.314,190.400 112.056 M171.203 150.900 C 171.929 151.395,172.946 152.610,173.461 153.600 C 174.480 155.556,176.400 159.893,176.400 160.237 C 176.400 160.355,176.850 161.435,177.400 162.637 C 177.950 163.840,178.400 164.920,178.400 165.037 C 178.400 165.155,178.850 166.235,179.400 167.437 C 179.950 168.640,180.400 169.723,180.400 169.845 C 180.400 169.966,180.940 171.296,181.600 172.800 C 183.882 177.998,183.057 180.360,176.400 187.696 C 173.382 191.022,173.410 191.591,176.841 196.699 C 185.897 210.183,194.556 217.339,210.600 224.602 C 214.110 226.191,214.641 225.906,219.646 219.762 C 226.781 211.005,227.616 210.466,231.091 212.371 C 231.481 212.584,233.060 213.333,234.600 214.034 C 240.339 216.647,252.238 222.529,253.300 223.278 C 255.528 224.850,254.191 235.053,251.184 239.423 C 248.469 243.369,241.600 247.717,235.693 249.227 C 228.187 251.147,221.614 250.161,207.400 244.983 C 200.479 242.462,190.134 236.669,184.400 232.103 C 183.190 231.140,181.480 229.779,180.600 229.079 C 175.104 224.710,164.024 212.744,159.229 206.000 C 148.840 191.388,146.003 184.147,146.534 173.600 C 147.027 163.805,152.409 154.038,159.000 150.975 C 161.942 149.608,169.241 149.563,171.203 150.900 " stroke="none" fill="#24d464" fill-rule="evenodd"></path><path id="path2" d="M193.107 93.490 C 193.826 93.579,194.906 93.577,195.507 93.486 C 196.108 93.395,195.520 93.322,194.200 93.324 C 192.880 93.326,192.388 93.401,193.107 93.490 M205.700 93.487 C 206.305 93.578,207.295 93.578,207.900 93.487 C 208.505 93.395,208.010 93.320,206.800 93.320 C 205.590 93.320,205.095 93.395,205.700 93.487 M188.705 93.883 C 189.202 93.979,189.922 93.975,190.305 93.875 C 190.687 93.775,190.280 93.696,189.400 93.701 C 188.520 93.705,188.207 93.787,188.705 93.883 M210.705 93.883 C 211.202 93.979,211.922 93.975,212.305 93.875 C 212.687 93.775,212.280 93.696,211.400 93.701 C 210.520 93.705,210.207 93.787,210.705 93.883 M230.200 97.600 C 230.640 97.789,231.270 97.944,231.600 97.944 C 231.978 97.944,231.904 97.817,231.400 97.600 C 230.960 97.411,230.330 97.256,230.000 97.256 C 229.622 97.256,229.696 97.383,230.200 97.600 M198.100 111.496 C 199.365 111.575,201.435 111.575,202.700 111.496 C 203.965 111.416,202.930 111.351,200.400 111.351 C 197.870 111.351,196.835 111.416,198.100 111.496 M191.700 111.876 C 192.085 111.976,192.715 111.976,193.100 111.876 C 193.485 111.775,193.170 111.693,192.400 111.693 C 191.630 111.693,191.315 111.775,191.700 111.876 M207.700 111.876 C 208.085 111.976,208.715 111.976,209.100 111.876 C 209.485 111.775,209.170 111.693,208.400 111.693 C 207.630 111.693,207.315 111.775,207.700 111.876 M272.383 121.300 C 273.364 122.345,274.219 123.200,274.283 123.200 C 274.584 123.200,274.266 122.841,272.500 121.183 L 270.600 119.400 272.383 121.300 M124.791 124.700 L 121.400 128.200 124.900 124.809 C 128.151 121.659,128.582 121.200,128.291 121.200 C 128.231 121.200,126.656 122.775,124.791 124.700 M278.600 127.600 C 279.683 128.700,280.660 129.600,280.770 129.600 C 280.880 129.600,280.083 128.700,279.000 127.600 C 277.917 126.500,276.940 125.600,276.830 125.600 C 276.720 125.600,277.517 126.500,278.600 127.600 M262.600 137.200 C 264.128 138.740,265.469 140.000,265.579 140.000 C 265.689 140.000,264.528 138.740,263.000 137.200 C 261.472 135.660,260.131 134.400,260.021 134.400 C 259.911 134.400,261.072 135.660,262.600 137.200 M266.400 141.325 C 266.400 141.394,266.985 141.979,267.700 142.625 L 269.000 143.800 267.825 142.500 C 266.730 141.288,266.400 141.016,266.400 141.325 M163.116 150.297 C 164.499 150.375,166.659 150.374,167.916 150.295 C 169.172 150.216,168.040 150.152,165.400 150.153 C 162.760 150.153,161.732 150.218,163.116 150.297 M155.186 153.900 L 153.000 156.200 155.300 154.014 C 157.437 151.982,157.783 151.600,157.486 151.600 C 157.424 151.600,156.389 152.635,155.186 153.900 M280.028 161.800 C 280.028 162.020,280.286 162.650,280.600 163.200 C 280.914 163.750,281.172 164.020,281.172 163.800 C 281.172 163.580,280.914 162.950,280.600 162.400 C 280.286 161.850,280.028 161.580,280.028 161.800 M306.109 188.400 C 306.109 189.390,306.187 189.795,306.282 189.300 C 306.378 188.805,306.378 187.995,306.282 187.500 C 306.187 187.005,306.109 187.410,306.109 188.400 M175.375 188.500 L 174.200 189.800 175.500 188.625 C 176.215 187.979,176.800 187.394,176.800 187.325 C 176.800 187.016,176.470 187.288,175.375 188.500 M288.109 192.800 C 288.109 193.790,288.187 194.195,288.282 193.700 C 288.378 193.205,288.378 192.395,288.282 191.900 C 288.187 191.405,288.109 191.810,288.109 192.800 M306.537 194.600 C 306.539 196.360,306.609 197.030,306.693 196.089 C 306.778 195.149,306.777 193.709,306.691 192.889 C 306.605 192.070,306.536 192.840,306.537 194.600 M94.150 199.000 C 94.151 201.420,94.216 202.358,94.296 201.085 C 94.376 199.812,94.375 197.832,94.294 196.685 C 94.214 195.538,94.149 196.580,94.150 199.000 M288.501 199.000 C 288.505 199.880,288.587 200.193,288.683 199.695 C 288.779 199.198,288.775 198.478,288.675 198.095 C 288.575 197.713,288.496 198.120,288.501 199.000 M306.537 203.400 C 306.539 205.160,306.609 205.830,306.693 204.889 C 306.778 203.949,306.777 202.509,306.691 201.689 C 306.605 200.870,306.536 201.640,306.537 203.400 M288.101 205.400 C 288.105 206.280,288.187 206.593,288.283 206.095 C 288.379 205.598,288.375 204.878,288.275 204.495 C 288.175 204.113,288.096 204.520,288.101 205.400 M186.400 209.000 C 187.817 210.430,189.067 211.600,189.177 211.600 C 189.287 211.600,188.217 210.430,186.800 209.000 C 185.383 207.570,184.133 206.400,184.023 206.400 C 183.913 206.400,184.983 207.570,186.400 209.000 M306.109 209.600 C 306.109 210.590,306.187 210.995,306.282 210.500 C 306.378 210.005,306.378 209.195,306.282 208.700 C 306.187 208.205,306.109 208.610,306.109 209.600 M168.800 217.725 C 168.800 217.794,169.385 218.379,170.100 219.025 L 171.400 220.200 170.225 218.900 C 169.130 217.688,168.800 217.416,168.800 217.725 M175.983 224.900 C 177.641 226.666,178.000 226.984,178.000 226.683 C 178.000 226.619,177.145 225.764,176.100 224.783 L 174.200 223.000 175.983 224.900 M97.256 225.200 C 97.256 225.530,97.411 226.160,97.600 226.600 C 97.817 227.104,97.944 227.178,97.944 226.800 C 97.944 226.470,97.789 225.840,97.600 225.400 C 97.383 224.896,97.256 224.822,97.256 225.200 M280.465 235.017 C 279.795 236.488,279.923 236.802,280.647 235.465 C 280.986 234.840,281.188 234.254,281.096 234.163 C 281.005 234.071,280.721 234.456,280.465 235.017 M249.178 241.500 L 247.800 243.000 249.300 241.622 C 250.696 240.338,250.984 240.000,250.678 240.000 C 250.612 240.000,249.937 240.675,249.178 241.500 M272.400 249.200 C 271.930 249.860,271.636 250.400,271.746 250.400 C 271.856 250.400,272.330 249.860,272.800 249.200 C 273.270 248.540,273.564 248.000,273.454 248.000 C 273.344 248.000,272.870 248.540,272.400 249.200 M223.905 249.883 C 224.402 249.979,225.122 249.975,225.505 249.875 C 225.887 249.775,225.480 249.696,224.600 249.701 C 223.720 249.705,223.407 249.787,223.905 249.883 M230.700 249.882 C 231.195 249.978,232.005 249.978,232.500 249.882 C 232.995 249.787,232.590 249.709,231.600 249.709 C 230.610 249.709,230.205 249.787,230.700 249.882 M262.192 261.300 L 258.600 265.000 262.300 261.408 C 265.736 258.072,266.182 257.600,265.892 257.600 C 265.832 257.600,264.167 259.265,262.192 261.300 M125.029 259.029 C 124.881 259.615,124.838 260.172,124.932 260.266 C 125.027 260.360,125.224 259.958,125.371 259.371 C 125.519 258.785,125.562 258.228,125.468 258.134 C 125.373 258.040,125.176 258.442,125.029 259.029 M278.800 270.200 C 277.828 271.190,277.123 272.000,277.233 272.000 C 277.343 272.000,278.228 271.190,279.200 270.200 C 280.172 269.210,280.877 268.400,280.767 268.400 C 280.657 268.400,279.772 269.210,278.800 270.200 M272.000 277.000 C 271.028 277.990,270.323 278.800,270.433 278.800 C 270.543 278.800,271.428 277.990,272.400 277.000 C 273.372 276.010,274.077 275.200,273.967 275.200 C 273.857 275.200,272.972 276.010,272.000 277.000 M190.500 286.276 C 190.885 286.376,191.515 286.376,191.900 286.276 C 192.285 286.175,191.970 286.093,191.200 286.093 C 190.430 286.093,190.115 286.175,190.500 286.276 M196.900 286.698 C 198.825 286.771,201.975 286.771,203.900 286.698 C 205.825 286.625,204.250 286.565,200.400 286.565 C 196.550 286.565,194.975 286.625,196.900 286.698 M187.505 304.283 C 188.002 304.379,188.722 304.375,189.105 304.275 C 189.487 304.175,189.080 304.096,188.200 304.101 C 187.320 304.105,187.007 304.187,187.505 304.283 M212.100 304.276 C 212.485 304.376,213.115 304.376,213.500 304.276 C 213.885 304.175,213.570 304.093,212.800 304.093 C 212.030 304.093,211.715 304.175,212.100 304.276 M191.105 304.683 C 191.602 304.779,192.322 304.775,192.705 304.675 C 193.087 304.575,192.680 304.496,191.800 304.501 C 190.920 304.505,190.607 304.587,191.105 304.683 M207.900 304.682 C 208.395 304.778,209.205 304.778,209.700 304.682 C 210.195 304.587,209.790 304.509,208.800 304.509 C 207.810 304.509,207.405 304.587,207.900 304.682 " stroke="none" fill="#74e29d" fill-rule="evenodd"></path><path id="path3" d="M199.100 93.489 C 199.815 93.578,200.985 93.578,201.700 93.489 C 202.415 93.401,201.830 93.328,200.400 93.328 C 198.970 93.328,198.385 93.401,199.100 93.489 M192.100 93.876 C 192.485 93.976,193.115 93.976,193.500 93.876 C 193.885 93.775,193.570 93.693,192.800 93.693 C 192.030 93.693,191.715 93.775,192.100 93.876 M207.505 93.883 C 208.002 93.979,208.722 93.975,209.105 93.875 C 209.487 93.775,209.080 93.696,208.200 93.701 C 207.320 93.705,207.007 93.787,207.505 93.883 M192.700 111.482 C 193.195 111.578,194.005 111.578,194.500 111.482 C 194.995 111.387,194.590 111.309,193.600 111.309 C 192.610 111.309,192.205 111.387,192.700 111.482 M206.705 111.483 C 207.202 111.579,207.922 111.575,208.305 111.475 C 208.687 111.375,208.280 111.296,207.400 111.301 C 206.520 111.305,206.207 111.387,206.705 111.483 M210.500 111.876 C 210.885 111.976,211.515 111.976,211.900 111.876 C 212.285 111.775,211.970 111.693,211.200 111.693 C 210.430 111.693,210.115 111.775,210.500 111.876 M270.400 119.725 C 270.400 119.794,270.985 120.379,271.700 121.025 L 273.000 122.200 271.825 120.900 C 270.730 119.688,270.400 119.416,270.400 119.725 M124.993 124.900 L 120.600 129.400 125.100 125.007 C 127.575 122.591,129.600 120.566,129.600 120.507 C 129.600 120.218,129.074 120.720,124.993 124.900 M262.600 136.800 C 263.459 137.680,264.252 138.400,264.362 138.400 C 264.472 138.400,263.859 137.680,263.000 136.800 C 262.141 135.920,261.348 135.200,261.238 135.200 C 261.128 135.200,261.741 135.920,262.600 136.800 M134.175 140.900 L 133.000 142.200 134.300 141.025 C 135.512 139.930,135.784 139.600,135.475 139.600 C 135.406 139.600,134.821 140.185,134.175 140.900 M146.531 175.400 C 146.533 176.940,146.605 177.521,146.692 176.691 C 146.779 175.861,146.777 174.601,146.689 173.891 C 146.600 173.181,146.529 173.860,146.531 175.400 M176.175 187.300 L 175.000 188.600 176.300 187.425 C 177.015 186.779,177.600 186.194,177.600 186.125 C 177.600 185.816,177.270 186.088,176.175 187.300 M288.093 189.200 C 288.093 189.970,288.175 190.285,288.276 189.900 C 288.376 189.515,288.376 188.885,288.276 188.500 C 288.175 188.115,288.093 188.430,288.093 189.200 M306.114 192.600 C 306.117 193.700,306.195 194.103,306.287 193.495 C 306.379 192.886,306.377 191.986,306.282 191.495 C 306.187 191.003,306.111 191.500,306.114 192.600 M288.514 194.200 C 288.517 195.300,288.595 195.703,288.687 195.095 C 288.779 194.486,288.777 193.586,288.682 193.095 C 288.587 192.603,288.511 193.100,288.514 194.200 M112.142 199.000 C 112.141 200.980,112.208 201.840,112.292 200.912 C 112.376 199.984,112.377 198.364,112.295 197.312 C 112.212 196.260,112.143 197.020,112.142 199.000 M288.514 204.200 C 288.517 205.300,288.595 205.703,288.687 205.095 C 288.779 204.486,288.777 203.586,288.682 203.095 C 288.587 202.603,288.511 203.100,288.514 204.200 M306.120 205.600 C 306.120 206.810,306.195 207.305,306.287 206.700 C 306.378 206.095,306.378 205.105,306.287 204.500 C 306.195 203.895,306.120 204.390,306.120 205.600 M186.200 209.200 C 187.059 210.080,187.852 210.800,187.962 210.800 C 188.072 210.800,187.459 210.080,186.600 209.200 C 185.741 208.320,184.948 207.600,184.838 207.600 C 184.728 207.600,185.341 208.320,186.200 209.200 M288.093 208.800 C 288.093 209.570,288.175 209.885,288.276 209.500 C 288.376 209.115,288.376 208.485,288.276 208.100 C 288.175 207.715,288.093 208.030,288.093 208.800 M168.400 217.000 C 169.146 217.770,169.847 218.400,169.957 218.400 C 170.067 218.400,169.546 217.770,168.800 217.000 C 168.054 216.230,167.353 215.600,167.243 215.600 C 167.133 215.600,167.654 216.230,168.400 217.000 M254.114 227.000 C 254.117 228.100,254.195 228.503,254.287 227.895 C 254.379 227.286,254.377 226.386,254.282 225.895 C 254.187 225.403,254.111 225.900,254.114 227.000 M262.189 261.700 L 259.400 264.600 262.300 261.811 C 264.994 259.220,265.383 258.800,265.089 258.800 C 265.028 258.800,263.723 260.105,262.189 261.700 M191.300 286.676 C 191.685 286.776,192.315 286.776,192.700 286.676 C 193.085 286.575,192.770 286.493,192.000 286.493 C 191.230 286.493,190.915 286.575,191.300 286.676 M198.700 287.093 C 199.635 287.177,201.165 287.177,202.100 287.093 C 203.035 287.009,202.270 286.940,200.400 286.940 C 198.530 286.940,197.765 287.009,198.700 287.093 M190.500 304.276 C 190.885 304.376,191.515 304.376,191.900 304.276 C 192.285 304.175,191.970 304.093,191.200 304.093 C 190.430 304.093,190.115 304.175,190.500 304.276 M209.300 304.276 C 209.685 304.376,210.315 304.376,210.700 304.276 C 211.085 304.175,210.770 304.093,210.000 304.093 C 209.230 304.093,208.915 304.175,209.300 304.276 M197.300 304.697 C 199.005 304.772,201.795 304.772,203.500 304.697 C 205.205 304.622,203.810 304.561,200.400 304.561 C 196.990 304.561,195.595 304.622,197.300 304.697 " stroke="none" fill="#95ecb4" fill-rule="evenodd"></path><path id="path4" d="M306.501 199.000 C 306.505 199.880,306.587 200.193,306.683 199.695 C 306.779 199.198,306.775 198.478,306.675 198.095 C 306.575 197.713,306.496 198.120,306.501 199.000 M226.900 249.887 C 227.505 249.978,228.495 249.978,229.100 249.887 C 229.705 249.795,229.210 249.720,228.000 249.720 C 226.790 249.720,226.295 249.795,226.900 249.887 " stroke="none" fill="#8cecb4" fill-rule="evenodd"></path></g></svg>