<svg width="460" height="522" viewBox="0 0 460 522" fill="none" xmlns="http://www.w3.org/2000/svg">
<path fill-rule="evenodd" clip-rule="evenodd" d="M3.9248 127.554L52.984 274.732L229.597 0L3.9248 127.554Z" fill="#BFC9E3"/>
<path d="M231.559 0L382.662 192.312L56.9087 274.732L231.559 0Z" fill="#8097C8"/>
<path d="M459.194 129.516L384.624 192.312L233.522 0L459.194 129.516Z" fill="#4B6BB1"/>
<path d="M457.232 131.479L386.587 194.274L457.232 390.511V131.479Z" fill="#2D51A3"/>
<path d="M310.054 408.173L384.624 196.237L457.232 390.511L310.054 408.173Z" fill="#768EC4"/>
<path d="M382.662 194.275L54.9463 274.732L310.054 410.135L382.662 194.275Z" fill="#4263AC"/>
<path d="M308.092 410.135L231.559 520.027L459.194 390.511L308.092 410.135Z" fill="#8097C8"/>
<path d="M229.597 521.99L54.9463 278.656L310.054 412.097L229.597 521.99Z" fill="#6C86BF"/>
<path d="M0 392.474L52.9839 278.656L229.597 521.99L0 392.474Z" fill="#6C86BF"/>
<path d="M51.0216 276.694L1.9624 390.511V129.516L51.0216 276.694Z" fill="#96A8D1"/>
</svg>
